<svg width="10" height="12" viewBox="0 0 10 12" fill="none" xmlns="http://www.w3.org/2000/svg">
<path d="M6.72 6.4H6.5125C5.97911 6.66071 5.39369 6.79745 4.8 6.8C4.185 6.8 3.61 6.65 3.0875 6.4H2.88C2.11624 6.4002 1.38381 6.70369 0.843752 7.24375C0.30369 7.78382 0.000198819 8.51624 0 9.28V10C0 10.3183 0.126428 10.6235 0.351472 10.8485C0.576515 11.0736 0.88174 11.2 1.2 11.2H8.4C8.71826 11.2 9.02349 11.0736 9.24853 10.8485C9.47357 10.6235 9.6 10.3183 9.6 10V9.28C9.5998 8.51624 9.29631 7.78382 8.75625 7.24375C8.21619 6.70369 7.48376 6.4002 6.72 6.4ZM4.8 5.6C5.35379 5.6 5.89514 5.43578 6.3556 5.12812C6.81605 4.82045 7.17494 4.38315 7.38686 3.87152C7.59879 3.35988 7.65424 2.7969 7.5462 2.25375C7.43816 1.7106 7.17149 1.21169 6.7799 0.820102C6.38831 0.428515 5.8894 0.161841 5.34625 0.0538025C4.80311 -0.0542361 4.24012 0.00121319 3.72849 0.213139C3.21685 0.425064 2.77955 0.783947 2.47188 1.2444C2.16422 1.70486 2 2.24621 2 2.8C1.9998 3.16776 2.07209 3.53195 2.21274 3.87175C2.35338 4.21155 2.55962 4.5203 2.81966 4.78034C3.0797 5.04038 3.38845 5.24662 3.72825 5.38727C4.06805 5.52791 4.43224 5.6002 4.8 5.6Z" fill="#213F7D"/>
</svg>
